<?xml version="1.0" encoding="UTF-8"?>
<svg width="700pt" height="700pt" version="1.1" viewBox="0 0 700 700" xmlns="http://www.w3.org/2000/svg">
 <g>
  <path d="m443.33 420c-6.1992 0.035156-12.16-2.3984-16.566-6.7656l-76.766-77-76.766 77c-6.0078 5.1445-14.211 6.8945-21.797 4.6523-7.582-2.2422-13.516-8.1758-15.758-15.758-2.2422-7.5859-0.49219-15.789 4.6523-21.797l93.332-93.332h0.003907c4.3711-4.3477 10.285-6.7852 16.449-6.7852 6.1641 0 12.078 2.4375 16.449 6.7852l93.332 93.332c4.3086 4.3945 6.7031 10.309 6.6719 16.457-0.03125 6.1523-2.4922 12.039-6.8438 16.387-4.3516 4.3477-10.242 6.7969-16.395 6.8242z"/>
  <path d="m443.33 280c-6.1992 0.035156-12.16-2.3984-16.566-6.7656l-76.766-77-76.766 77c-6.0078 5.1445-14.211 6.8945-21.797 4.6523-7.582-2.2422-13.516-8.1758-15.758-15.758-2.2422-7.5859-0.49219-15.789 4.6523-21.797l93.332-93.332h0.003907c4.3711-4.3477 10.285-6.7852 16.449-6.7852 6.1641 0 12.078 2.4375 16.449 6.7852l93.332 93.332c4.3086 4.3945 6.7031 10.309 6.6719 16.457-0.03125 6.1523-2.4922 12.039-6.8438 16.387-4.3516 4.3477-10.242 6.7969-16.395 6.8242z"/>
 </g>
</svg>
